<?xml version="1.0" standalone="no"?>
<!DOCTYPE svg PUBLIC "-//W3C//DTD SVG 1.1//EN" "http://www.w3.org/Graphics/SVG/1.1/DTD/svg11.dtd" >
<svg xmlns="http://www.w3.org/2000/svg" xmlns:xlink="http://www.w3.org/1999/xlink" version="1.1">
<metadata>
Created by FontForge 20200314 at Mon Apr 30 18:00:01 2007
 By Unknown
Copr.1994 Image Club Graphics, Inc.
</metadata>
<defs>
<font id="DigitalICG" horiz-adv-x="560" >
  <font-face 
    font-family="Digital"
    font-weight="500"
    font-stretch="normal"
    units-per-em="1000"
    panose-1="0 0 0 0 0 0 0 0 0 0"
    ascent="800"
    descent="-200"
    x-height="601"
    cap-height="794"
    bbox="-57.6074 -251.019 1049 1057"
    underline-thickness="16"
    underline-position="-118"
    stemh="82"
    stemv="82"
    unicode-range="U+0020-25CA"
  />
<missing-glyph horiz-adv-x="500" 
 />
    <glyph glyph-name=".notdef" horiz-adv-x="500" 
 />
    <glyph glyph-name="space" unicode=" " horiz-adv-x="201" 
 />
    <glyph glyph-name="exclam" unicode="!" horiz-adv-x="226" 
d="M153 455l-43 -39l-38 38v303l38 37l43 -40v-299zM153 157l-43 -40l-38 37v186l38 38l43 -40v-181zM153 40l-43 -40l-38 37l38 41z" />
    <glyph glyph-name="quotedbl" unicode="&#x22;" horiz-adv-x="310" 
d="M260 587l-43 -39l-39 38v172l39 38l43 -40v-169zM131 587l-43 -39l-39 38v172l39 38l43 -40v-169z" />
    <glyph glyph-name="numbersign" unicode="#" horiz-adv-x="719" 
d="M557 680l-31 -174l-49 -39l-33 38l31 177l46 37zM672 452l-46 -39h-102l-31 39l47 42h101zM360 680l-30 -174l-49 -39l-34 38l32 177l46 37zM460 452l-46 -39h-90l-31 39l46 42h89zM508 401l-17 -92l-49 -39l-33 38l17 95l46 37zM637 247l-46 -40h-101l-33 40l46 42h101z
M260 452l-46 -39h-98l-31 39l47 42h96zM311 401l-16 -92l-49 -39l-33 38l17 95l46 37zM424 247l-46 -40h-91l-30 40l46 42h89zM471 192l-27 -152l-49 -40l-33 37l28 157l46 37zM224 247l-46 -40h-99l-30 40l47 42h96zM274 192l-27 -152l-49 -40l-33 37l28 157l45 37z" />
    <glyph glyph-name="dollar" unicode="$" horiz-adv-x="559" 
d="M317 814h-82v63l40 37l42 -39v-61zM479 754l-39 -40h-299l-37 39l39 43h297zM514 102l-42 -39l-40 37v240l40 38l42 -40v-236zM455 396l-38 -40h-276l-37 39l39 43h273zM131 455l-42 -39l-40 38v242l40 37l42 -40v-238zM455 42l-39 -42h-328l-39 42l38 40h330zM317 -87
l-42 -39l-40 38v63h82v-62z" />
    <glyph glyph-name="percent" unicode="%" horiz-adv-x="813" 
d="M653 740l-168 -288l-53 -13l-17 55l167 286l56 13zM315 753l-39 -40h-135l-38 39l40 43h133zM374 556l-43 -39l-38 38v136l38 37l43 -39v-133zM708 298l-39 -40h-135l-37 39l40 43h132zM768 102l-43 -39l-39 37v136l39 37l43 -39v-132zM131 556l-43 -39l-39 38v136l39 37
l43 -39v-133zM315 497l-39 -42h-133l-40 42l38 40h135zM525 102l-43 -39l-39 37v136l39 37l43 -39v-132zM708 42l-39 -42h-132l-40 42l37 40h135zM428 354l-200 -337l-52 -13l-17 55l197 334l57 12z" />
    <glyph glyph-name="ampersand" unicode="&#x26;" horiz-adv-x="666" 
d="M455 754l-39 -40h-275l-38 39l40 43h273zM514 455l-43 -39l-39 38v67l39 37l43 -40v-63zM618 396l-39 -40h-51l-38 39l39 43h50zM514 102l-43 -39l-39 37v240l39 38l43 -40v-236zM455 396l-39 -40h-275l-38 39l40 43h273zM131 455l-43 -39l-39 38v242l39 37l43 -40v-238z
M455 42l-39 -42h-273l-40 42l38 40h275zM131 102l-43 -39l-39 37v240l39 38l43 -40v-236z" />
    <glyph glyph-name="quoteright" unicode="&#x2019;" horiz-adv-x="206" 
d="M157 746l-54 -85h-53l-1 54l54 80l54 1v-50z" />
    <glyph glyph-name="parenleft" unicode="(" horiz-adv-x="308" 
d="M256 754l-39 -40h-76l-38 39l40 43h73zM131 455l-43 -39l-39 38v242l39 37l43 -40v-238zM131 102l-43 -39l-39 37v240l39 38l43 -40v-236zM256 42l-40 -42h-73l-40 42l38 40h76z" />
    <glyph glyph-name="parenright" unicode=")" horiz-adv-x="304" 
d="M202 753l-38 -39h-76l-39 40l39 42h74zM256 454l-40 -38l-42 39v238l42 40l40 -37v-242zM256 100l-40 -37l-42 39v236l42 40l40 -38v-240zM202 42l-40 -42h-74l-39 42l39 40h76z" />
    <glyph glyph-name="asterisk" unicode="*" horiz-adv-x="332" 
d="M284 740l-50 -48h-57v62l46 41l61 -1v-54zM282 566h-56l-50 48v56h61l45 -43v-61zM152 692h-57l-49 48v54l61 1l45 -41v-62zM153 614l-50 -48h-56v61l45 43h61v-56z" />
    <glyph glyph-name="plus" unicode="+" horiz-adv-x="528" 
d="M304 388l-42 -39l-39 37v124l39 38l42 -40v-120zM479 328l-39 -39h-131l-38 39l40 42h129zM257 328l-39 -39h-131l-38 39l39 42h129zM304 153l-42 -39l-39 37v124l39 37l42 -39v-120z" />
    <glyph glyph-name="comma" unicode="," horiz-adv-x="200" 
d="M152 51l-52 -81h-54v51l54 83h52v-53z" />
    <glyph glyph-name="hyphen" unicode="-" horiz-adv-x="452" 
d="M401 310l-39 -39h-275l-38 39l39 42l273 1z" />
    <glyph glyph-name="period" unicode="." horiz-adv-x="211" 
d="M162 56l-56 -57l-56 56l56 56z" />
    <glyph glyph-name="slash" unicode="/" horiz-adv-x="590" 
d="M545 740l-170 -288l-52 -13l-18 55l167 286l57 13zM319 354l-200 -337l-53 -13l-17 55l198 334l57 12z" />
    <glyph glyph-name="zero" unicode="0" 
d="M514 455l-43 -39l-39 38v242l39 37l43 -40v-238zM455 754l-39 -40h-275l-38 39l40 43h273zM514 102l-43 -39l-39 37v240l39 38l43 -40v-236zM131 455l-43 -39l-39 38v242l39 37l43 -40v-238zM455 42l-39 -42h-273l-40 42l38 40h275zM131 102l-43 -39l-39 37v240l39 38
l43 -40v-236z" />
    <glyph glyph-name="one" unicode="1" horiz-adv-x="290" 
d="M223 795l-77 -81h-58l-39 40l39 41h135zM238 454l-39 -38l-42 39v238l81 83v-322zM238 39l-42 -40l-39 38v303l39 38l42 -40v-299z" />
    <glyph glyph-name="two" unicode="2" 
d="M514 455l-43 -39l-39 38v242l39 37l43 -40v-238zM455 754l-39 -40h-277l-38 39l40 43h275zM455 396l-39 -40h-275l-38 39l40 43h273zM455 42l-39 -42h-356l81 82h275zM131 102l-82 -81v319l39 38l43 -40v-236z" />
    <glyph glyph-name="three" unicode="3" horiz-adv-x="506" 
d="M459 455l-42 -39l-39 38v242l39 37l42 -40v-238zM401 754l-39 -40h-275l-38 39l39 43h273zM459 102l-42 -39l-39 37v240l39 38l42 -40v-236zM401 396l-39 -40h-275l-38 39l39 43h273zM401 42l-40 -42h-273l-39 42l38 40h275z" />
    <glyph glyph-name="four" unicode="4" 
d="M514 455l-43 -39l-39 38v303l39 37l43 -40v-299zM131 455l-43 -39l-39 38v303l39 37l43 -40v-299zM455 396l-39 -40h-275l-38 39l40 43h273zM514 39l-43 -40l-39 38v303l39 38l43 -40v-299z" />
    <glyph glyph-name="five" unicode="5" 
d="M455 752l-39 -40h-275l-81 82h356zM514 101l-43 -40l-39 38v242l39 37l43 -39v-238zM131 456l-43 -39l-39 38v318l82 -81v-236zM455 399l-39 -42h-273l-40 42l38 39h275zM455 41l-39 -43h-275l-40 43l38 39h277z" />
    <glyph glyph-name="six" unicode="6" horiz-adv-x="556" 
d="M455 754l-39 -40h-275l-38 39l40 43h273zM514 102l-43 -39l-39 37v240l39 38l43 -40v-236zM455 396l-39 -40h-275l-38 39l40 43h273zM131 455l-43 -39l-39 38v242l39 37l43 -40v-238zM455 42l-39 -42h-273l-40 42l38 40h275zM131 102l-43 -39l-39 37v240l39 38l43 -40
v-236z" />
    <glyph glyph-name="seven" unicode="7" horiz-adv-x="501" 
d="M455 455l-39 -38l-43 40v236l82 80v-318zM444 795l-81 -82h-275l-39 40l39 42h356zM455 38l-39 -38l-43 41v298l43 40l39 -38v-303z" />
    <glyph glyph-name="eight" unicode="8" horiz-adv-x="556" 
d="M514 455l-43 -39l-39 38v242l39 37l43 -40v-238zM455 754l-39 -40h-275l-38 39l39 42h273zM514 102l-43 -39l-39 37v240l39 38l43 -40v-236zM455 396l-39 -40h-275l-38 39l40 43h273zM131 455l-43 -39l-39 38v242l39 37l43 -40v-238zM455 42l-39 -42h-273l-40 42l38 40
h275zM131 102l-43 -39l-39 37v240l39 38l43 -40v-236z" />
    <glyph glyph-name="nine" unicode="9" 
d="M514 455l-43 -39l-39 38v242l39 37l43 -40v-238zM455 754l-39 -40h-275l-38 39l40 43h273zM514 102l-43 -39l-39 37v240l39 38l43 -40v-236zM455 396l-39 -40h-275l-38 39l40 43h273zM131 455l-43 -39l-39 38v242l39 37l43 -40v-238zM455 42l-39 -42h-273l-40 42l38 40
h275z" />
    <glyph glyph-name="colon" unicode=":" horiz-adv-x="211" 
d="M162 432l-56 -56l-55 56l55 56zM162 56l-56 -57l-55 57l55 55z" />
    <glyph glyph-name="semicolon" unicode=";" horiz-adv-x="231" 
d="M181 432l-55 -56l-57 56l57 56zM155 48l-52 -78h-54v51l54 83h52v-56z" />
    <glyph glyph-name="less" unicode="&#x3c;" horiz-adv-x="475" 
d="M432 495l-326 -156h-57v54l329 159h54v-57zM432 91h-54l-329 159v55l57 -1l326 -156v-57z" />
    <glyph glyph-name="equal" unicode="=" horiz-adv-x="452" 
d="M401 393l-39 -39h-275l-38 39l41 43h271zM401 227l-39 -39h-275l-38 39l39 42l273 1z" />
    <glyph glyph-name="greater" unicode="&#x3e;" horiz-adv-x="478" 
d="M432 339h-56l-327 156v57h54l329 -159v-54zM432 250l-329 -159h-54v57l327 156l56 1v-55z" />
    <glyph glyph-name="question" unicode="?" 
d="M514 455l-43 -39l-39 38v242l39 37l43 -40v-238zM455 754l-39 -40h-275l-38 39l40 43h273zM455 396l-39 -40h-275l-38 39l40 43h273zM131 157l-43 -39l-39 37v185l39 38l43 -40v-181zM131 40l-43 -40l-39 37l39 41z" />
    <glyph glyph-name="at" unicode="@" horiz-adv-x="780" 
d="M738 436c0 -146 -109 -288 -240 -288c-67 0 -74 82 -74 82l-30 -34c-26 -30 -55 -44 -96 -44c-81 -1 -135 77 -135 157c0 133 135 225 223 225c36 0 67 -13 78 -46l10 -28l20 62l86 2l-78 -288c-6 -23 -6 -60 16 -60c83 0 166 135 166 252c0 163 -145 248 -292 248
c-171 0 -310 -139 -310 -310c0 -177 141 -324 318 -324c217 0 268 144 268 144h66s-77 -195 -336 -195c-204 0 -371 167 -370 371c1 201 163 366 364 366c176 0 346 -116 346 -292zM455 420c0 50 -20 88 -59 88c-67 0 -143 -142 -143 -244c0 -40 18 -83 68 -83
c72 0 134 162 134 239z" />
    <glyph glyph-name="A" unicode="A" 
d="M513 455l-42 -39l-39 38v242l39 37l42 -40v-238zM454 754l-39 -40h-275l-37 39l38 42h273zM454 396l-39 -40h-275l-37 39l38 43h273zM130 455l-43 -39l-39 38v242l39 37l43 -40v-238zM513 39l-42 -40l-39 38v303l39 38l42 -40v-299zM130 39l-43 -40l-39 38v303l39 38
l43 -40v-299z" />
    <glyph glyph-name="B" unicode="B" 
d="M514 455l-43 -39l-39 38v242l39 37l43 -40v-238zM455 754l-39 -40h-275l-77 82h352zM514 102l-43 -39l-39 37v240l39 38l43 -40v-236zM131 455l-43 -39l-39 38v322l82 -83v-238zM455 396l-39 -40h-275l-38 39l40 43h273zM455 42l-39 -42h-356l81 82h275zM131 102l-82 -81
v319l39 38l43 -40v-236z" />
    <glyph glyph-name="C" unicode="C" horiz-adv-x="504" 
d="M455 754l-39 -40h-275l-38 39l40 43h273zM131 455l-43 -39l-39 38v242l39 37l43 -40v-238zM455 42l-39 -42h-273l-40 42l38 40h275zM131 102l-43 -39l-39 37v240l39 38l43 -40v-236z" />
    <glyph glyph-name="D" unicode="D" horiz-adv-x="556" 
d="M514 455l-43 -39l-39 38v242l39 37l43 -40v-238zM455 754l-39 -40h-275l-77 82h352zM514 102l-43 -39l-39 37v240l39 38l43 -40v-236zM131 455l-43 -39l-39 38v322l82 -83v-238zM455 42l-39 -42h-356l81 82h275zM131 102l-82 -81v319l39 38l43 -40v-236z" />
    <glyph glyph-name="E" unicode="E" horiz-adv-x="504" 
d="M455 754l-39 -40h-275l-77 82h352zM131 455l-43 -39l-39 38v322l82 -83v-238zM455 396l-39 -40h-275l-38 39l40 43h273zM455 42l-39 -42h-356l81 82h275zM131 102l-82 -81v319l39 38l43 -40v-236z" />
    <glyph glyph-name="F" unicode="F" horiz-adv-x="484" 
d="M455 753l-39 -40h-275l-77 82h352zM131 455l-43 -39l-39 38v321l82 -83v-237zM455 396l-39 -40h-275l-38 39l40 43h273zM131 39l-43 -40l-39 38v303l39 38l43 -40v-299z" />
    <glyph glyph-name="G" unicode="G" horiz-adv-x="568" 
d="M459 754l-38 -40h-280l-38 39l40 43h277zM496 438l-80 -82h-54l-38 39l39 43h133zM514 102l-43 -39l-39 37v240l82 79v-317zM131 455l-43 -39l-39 38v242l39 37l43 -40v-238zM455 42l-39 -42h-273l-40 42l38 40h275zM131 102l-43 -39l-39 37v240l39 38l43 -40v-236z" />
    <glyph glyph-name="H" unicode="H" 
d="M514 455l-43 -39l-39 38v303l39 37l43 -40v-299zM131 455l-43 -39l-39 38v303l39 37l43 -40v-299zM455 396l-39 -40h-275l-38 39l40 41h273zM514 39l-43 -40l-39 38v303l39 38l43 -40v-299zM131 39l-43 -40l-39 38v303l39 38l43 -40v-299z" />
    <glyph glyph-name="I" unicode="I" horiz-adv-x="224" 
d="M154 455l-42 -39l-40 38v303l40 37l42 -40v-299zM154 39l-42 -40l-40 38v303l40 38l42 -40v-299z" />
    <glyph glyph-name="J" unicode="J" 
d="M516 455l-43 -39l-39 38v303l39 37l43 -40v-299zM516 102l-43 -39l-39 37v240l39 38l43 -40v-236zM456 42l-39 -42h-272l-40 42l37 40h275zM133 102l-43 -39l-39 37v240l39 38l43 -40v-236z" />
    <glyph glyph-name="K" unicode="K" 
d="M494 741l-284 -283h-54v57l280 280h58v-54zM131 455l-43 -39l-39 38v303l39 37l43 -40v-299zM455 396l-39 -40h-275l-38 39l40 43h273zM514 39l-43 -40l-39 38v303l39 38l43 -40v-299zM131 39l-43 -40l-39 38v303l39 38l43 -40v-299z" />
    <glyph glyph-name="L" unicode="L" horiz-adv-x="477" 
d="M131 455l-43 -39l-39 38v303l39 37l43 -40v-299zM455 42l-39 -42h-356l81 82h275zM131 102l-82 -81v319l39 38l43 -40v-236z" />
    <glyph glyph-name="M" unicode="M" horiz-adv-x="556" 
d="M514 455l-43 -39l-39 38v242l39 37l43 -40v-238zM455 754l-39 -40h-275l-38 39l40 43h273zM319 582l-39 -37l-41 38v107l80 1v-109zM131 455l-43 -39l-39 38v242l39 37l43 -40v-238zM514 39l-43 -40l-39 38v303l39 38l43 -40v-299zM131 39l-43 -40l-39 38v303l39 38
l43 -40v-299z" />
    <glyph glyph-name="N" unicode="N" 
d="M514 455l-43 -39l-39 38v303l39 37l43 -40v-299zM409 453l-54 1l-199 247l-1 55l57 -1l197 -245v-57zM131 455l-43 -39l-39 38v303l39 37l43 -40v-299zM514 39l-43 -40l-39 38v303l39 38l43 -40v-299zM131 39l-43 -40l-39 38v303l39 38l43 -40v-299z" />
    <glyph glyph-name="O" unicode="O" 
d="M514 455l-43 -39l-39 38v242l39 37l43 -40v-238zM455 754l-39 -40h-275l-38 39l40 43h273zM514 102l-43 -39l-39 37v240l39 38l43 -40v-236zM131 455l-43 -39l-39 38v242l39 37l43 -40v-238zM455 42l-39 -42h-273l-40 42l38 40h275zM131 102l-43 -39l-39 37v240l39 38
l43 -40v-236z" />
    <glyph glyph-name="P" unicode="P" 
d="M514 455l-43 -39l-39 38v241l39 37l43 -40v-237zM455 753l-39 -40h-275l-77 82h352zM131 455l-43 -39l-39 38v321l82 -83v-237zM455 396l-39 -40h-275l-38 39l40 43h273zM131 39l-43 -40l-39 38v303l39 38l43 -40v-299z" />
    <glyph glyph-name="Q" unicode="Q" horiz-adv-x="590" 
d="M514 455l-43 -39l-39 38v242l39 37l43 -40v-238zM455 754l-39 -40h-275l-38 39l40 42h273zM514 172l-43 -39l-39 37v170l39 38l43 -40v-166zM131 455l-43 -39l-39 38v242l39 37l43 -40v-238zM545 -35l-55 1l-113 114l-2 55l58 -1l112 -111v-58zM131 102l-43 -39l-39 37
v240l39 38l43 -40v-236zM378 42l-39 -42h-196l-40 42l38 40h198z" />
    <glyph glyph-name="R" unicode="R" 
d="M514 455l-43 -39l-39 38v242l39 37l43 -40v-238zM455 754l-39 -40h-275l-77 81h352zM131 455l-43 -39l-39 38v322l82 -83v-238zM455 396l-39 -40h-275l-38 39l40 43h273zM490 54l-1 -55h-58l-275 276v59h54zM131 39l-43 -40l-39 38v303l39 38l43 -40v-299z" />
    <glyph glyph-name="S" unicode="S" horiz-adv-x="559" 
d="M479 754l-39 -40h-299l-37 39l39 42h297zM514 102l-42 -39l-40 37v240l40 38l42 -40v-236zM455 396l-38 -40h-276l-37 39l39 43h273zM131 455l-42 -39l-40 38v242l40 37l42 -40v-238zM455 42l-39 -42h-328l-39 42l38 40h330z" />
    <glyph glyph-name="T" unicode="T" horiz-adv-x="390" 
d="M374 754l-39 -40h-275l-38 39l39 42h273zM238 455l-43 -39l-39 38v238h82v-237zM238 39l-43 -40l-39 38v303l39 38l43 -40v-299z" />
    <glyph glyph-name="U" unicode="U" 
d="M514 455l-43 -39l-39 38v304l39 37l43 -40v-300zM131 455l-43 -39l-39 38v304l39 37l43 -40v-300zM514 102l-43 -39l-39 37v240l39 38l43 -40v-236zM455 42l-39 -42h-273l-40 42l38 40h275zM131 102l-43 -39l-39 37v240l39 38l43 -40v-236z" />
    <glyph glyph-name="V" unicode="V" 
d="M514 455l-43 -39l-39 38v304l39 37l43 -40v-300zM131 455l-43 -39l-39 38v304l39 37l43 -40v-300zM473 340l-263 -303h-54v58l257 300h58zM131 37l-43 -39l-39 38v304l39 38l43 -40v-301z" />
    <glyph glyph-name="W" unicode="W" 
d="M514 456l-43 -39l-39 37v304l39 37l43 -40v-299zM131 456l-43 -39l-39 37v304l39 37l43 -40v-299zM514 101l-43 -40l-39 38v241l39 38l43 -39v-238zM319 103h-80v108l41 39l39 -38v-109zM455 41l-39 -43h-273l-40 43l38 39h275zM131 101l-43 -40l-39 38v241l39 38l43 -39
v-238z" />
    <glyph glyph-name="X" unicode="X" horiz-adv-x="558" 
d="M511 741l-159 -329l-55 1l1 55l157 327h56v-54zM264 413l-54 -1l-160 329l-1 54h58l157 -327v-55zM511 -1h-56l-157 327l-1 56h55l159 -329v-54zM264 326l-157 -327h-58l1 54l160 329h54v-56z" />
    <glyph glyph-name="Y" unicode="Y" 
d="M514 455l-43 -39l-39 38v303l39 37l43 -40v-299zM131 455l-43 -39l-39 38v303l39 37l43 -40v-299zM514 102l-43 -39l-39 37v240l39 38l43 -40v-236zM455 396l-39 -40h-275l-38 39l40 43h273zM455 42l-39 -42h-325l-40 42l37 40h328z" />
    <glyph glyph-name="Z" unicode="Z" horiz-adv-x="507" 
d="M455 754l-38 -40h-330l-38 39l39 42h328zM416 622l-100 -187l-55 -18l-20 50l119 225h55zM269 343l-115 -237h-60v69l100 202l55 17zM455 42l-39 -42h-328l-39 42l38 40h330z" />
    <glyph glyph-name="bracketleft" unicode="[" horiz-adv-x="311" 
d="M258 754l-39 -40h-78l-77 82h155zM131 455l-43 -39l-39 38v322l82 -83v-238zM131 102l-82 -81v319l39 38l43 -40v-236zM258 42l-39 -42h-159l81 82h78z" />
    <glyph glyph-name="backslash" unicode="\" horiz-adv-x="591" 
d="M288 494l-17 -55l-53 13l-169 288l15 53l57 -13zM545 59l-18 -55l-52 13l-200 337l15 51l57 -12z" />
    <glyph glyph-name="bracketright" unicode="]" horiz-adv-x="307" 
d="M243 795l-77 -81h-78l-39 40l39 41h155zM258 454l-39 -38l-43 39v238l82 83v-322zM258 21l-82 81v236l43 40l39 -38v-319zM247 0h-159l-39 42l39 40h78z" />
    <glyph glyph-name="asciicircum" unicode="^" horiz-adv-x="382" 
d="M334 667h-57l-73 71v57h59l71 -69v-59zM179 738l-73 -71h-57v59l71 69h59v-57z" />
    <glyph glyph-name="underscore" unicode="_" horiz-adv-x="692" 
d="M718 -176h-723v35h723v-35z" />
    <glyph glyph-name="quoteleft" unicode="&#x2018;" horiz-adv-x="201" 
d="M157 746l-54 -85h-53l-1 54l54 80l54 1v-50z" />
    <glyph glyph-name="a" unicode="a" horiz-adv-x="486" 
d="M436 351l-43 -39l-39 38v152l39 38l43 -40v-149zM376 560l-39 -39h-196l-38 39l40 43h194zM376 292l-39 -40h-196l-38 40l40 42l194 -1zM436 40l-43 -40l-39 37v199l39 37l43 -39v-194zM131 351l-43 -39l-39 38v152l39 38l43 -40v-149zM131 40l-43 -40l-39 37v199l39 37
l43 -39v-194z" />
    <glyph glyph-name="b" unicode="b" horiz-adv-x="486" 
d="M436 351l-43 -39l-39 38v152l39 38l43 -40v-149zM376 560l-39 -39h-196l-81 82h277zM436 102l-43 -39l-39 37v136l39 37l43 -39v-132zM131 351l-43 -39l-39 38v227l82 -77v-149zM376 292l-39 -40h-196l-38 40l40 42h194zM376 42l-39 -42h-273l77 82h196zM131 102l-82 -81
v215l39 37l43 -39v-132z" />
    <glyph glyph-name="c" unicode="c" horiz-adv-x="424" 
d="M376 560l-39 -39h-196l-38 39l40 43h194zM131 102l-43 -39l-39 37v405l39 37l43 -40v-400zM376 42l-39 -42h-194l-40 42l38 40h196z" />
    <glyph glyph-name="d" unicode="d" horiz-adv-x="486" 
d="M436 351l-43 -39l-39 38v152l39 38l43 -40v-149zM376 560l-39 -39h-196l-81 82h277zM436 102l-43 -39l-39 37v136l39 37l43 -39v-132zM131 351l-43 -39l-39 38v227l82 -77v-149zM376 42l-39 -42h-273l77 82h196zM131 102l-82 -81v215l39 37l43 -39v-132z" />
    <glyph glyph-name="e" unicode="e" horiz-adv-x="422" 
d="M376 560l-39 -39h-196l-38 39l40 43h194zM376 292l-39 -40h-196l-38 40l40 42h194zM131 351l-43 -39l-39 38v152l39 38l43 -40v-149zM376 42l-39 -42h-194l-40 42l38 40h196zM131 102l-43 -39l-39 37v136l39 37l43 -39v-132z" />
    <glyph glyph-name="f" unicode="f" horiz-adv-x="400" 
d="M376 560l-39 -39h-196l-38 39l40 43h194zM376 292l-39 -40h-196l-38 40l40 42h194zM131 351l-43 -39l-39 38v152l39 38l43 -40v-149zM131 37l-43 -39l-39 38v200l39 37l43 -39v-197z" />
    <glyph glyph-name="g" unicode="g" horiz-adv-x="486" 
d="M376 560l-39 -39h-196l-38 39l40 43l194 -1zM419 334l-82 -82h-56l-38 40l39 42h137zM436 102l-43 -39l-39 37v136l82 80v-214zM131 351l-43 -39l-39 38v152l39 38l43 -40v-149zM376 42l-39 -42h-194l-40 42l38 40h196zM131 102l-43 -39l-39 37v136l39 37l43 -39v-132z
" />
    <glyph glyph-name="h" unicode="h" horiz-adv-x="486" 
d="M436 351l-43 -39l-39 38v217l39 37l43 -40v-213zM131 351l-43 -39l-39 38v217l39 37l43 -40v-213zM376 292l-39 -40h-196l-38 40l40 42h194zM436 37l-43 -39l-39 38v200l39 37l43 -39v-197zM131 37l-43 -39l-39 38v200l39 37l43 -39v-197z" />
    <glyph glyph-name="i" unicode="i" horiz-adv-x="224" 
d="M154 349l-42 -39l-40 37v217l40 38l42 -40v-213zM154 35l-42 -40l-40 38v201l40 37l42 -39v-197z" />
    <glyph glyph-name="j" unicode="j" horiz-adv-x="486" 
d="M436 351l-43 -39l-39 38v213l39 37l43 -39v-210zM436 102l-43 -39l-39 37v136l39 37l43 -39v-132zM376 42l-39 -42h-194l-40 42l38 40h196zM131 102l-43 -39l-39 37v136l39 37l43 -39v-132z" />
    <glyph glyph-name="k" unicode="k" horiz-adv-x="483" 
d="M427 549l-217 -189l-57 -1v60l212 184h62v-54zM131 351l-43 -39l-39 38v217l39 37l43 -40v-213zM376 292l-39 -40h-196l-38 40l40 42h194zM436 37l-43 -39l-39 38v200l39 37l43 -39v-197zM131 37l-43 -39l-39 38v200l39 37l43 -39v-197z" />
    <glyph glyph-name="l" unicode="l" horiz-adv-x="398" 
d="M131 351l-43 -39l-39 38v217l39 37l43 -40v-213zM376 42l-39 -42h-273l77 82h196zM131 102l-82 -81v215l39 37l43 -39v-132z" />
    <glyph glyph-name="m" unicode="m" horiz-adv-x="483" 
d="M436 351l-43 -39l-39 38v152l39 38l43 -40v-149zM376 560l-39 -39h-196l-38 39l40 43h194zM286 413l-43 -39l-39 39v86h82v-86zM436 39l-43 -40l-39 38v199l39 37l43 -39v-195zM131 351l-43 -39l-39 38v152l39 38l43 -40v-149zM131 39l-43 -40l-39 38v199l39 37l43 -39
v-195z" />
    <glyph glyph-name="n" unicode="n" horiz-adv-x="486" 
d="M436 351l-43 -39l-39 38v217l39 37l43 -40v-213zM339 350h-56l-134 158v56h59l131 -155v-59zM131 351l-43 -39l-39 38v217l39 37l43 -40v-213zM436 37l-43 -39l-39 38v200l39 37l43 -39v-197zM131 37l-43 -39l-39 38v200l39 37l43 -39v-197z" />
    <glyph glyph-name="o" unicode="o" horiz-adv-x="486" 
d="M436 351l-43 -39l-39 38v152l39 38l43 -40v-149zM376 560l-39 -39h-196l-38 39l40 43h194zM436 102l-43 -39l-39 37v136l39 37l43 -39v-132zM131 351l-43 -39l-39 38v152l39 38l43 -40v-149zM376 42l-39 -42h-194l-40 42l38 40h196zM131 102l-43 -39l-39 37v136l39 37
l43 -39v-132z" />
    <glyph glyph-name="p" unicode="p" horiz-adv-x="483" 
d="M436 351l-43 -39l-39 38v152l39 38l43 -40v-149zM376 560l-39 -39h-196l-77 82h273zM131 351l-43 -39l-39 38v229l82 -79v-149zM376 292l-39 -40h-196l-38 40l40 42h194zM131 39l-43 -40l-39 38v199l39 37l43 -39v-195z" />
    <glyph glyph-name="q" unicode="q" horiz-adv-x="483" 
d="M436 351l-43 -39l-39 38v152l39 38l43 -40v-149zM376 560l-39 -39h-196l-38 39l40 43h194zM436 148l-43 -39l-39 37v90l39 37l43 -39v-86zM131 351l-43 -39l-39 38v152l39 38l43 -40v-149zM423 -2l-55 1l-83 84v54h57l80 -81zM131 102l-43 -39l-39 37v136l39 37l43 -39
v-132zM302 42l-41 -42h-118l-40 42l38 40h122z" />
    <glyph glyph-name="r" unicode="r" horiz-adv-x="483" 
d="M436 351l-43 -39l-39 38v152l39 38l43 -40v-149zM376 560l-39 -39h-196l-77 82h273zM131 351l-43 -39l-39 38v229l82 -79v-149zM376 292l-39 -40h-196l-38 40l40 42h194zM386 -2h-58l-178 180l1 55h58l177 -177v-58zM131 39l-43 -40l-39 38v199l39 37l43 -39v-195z" />
    <glyph glyph-name="s" unicode="s" horiz-adv-x="483" 
d="M411 560l-39 -39h-231l-38 39l40 43h229zM436 102l-43 -39l-39 37v136l39 37l43 -39v-132zM376 292l-39 -40h-196l-38 40l40 42h194zM131 351l-43 -39l-39 38v152l39 38l43 -40v-149zM376 42l-39 -42h-234l-39 42l38 40h235z" />
    <glyph glyph-name="t" unicode="t" horiz-adv-x="378" 
d="M351 560l-39 -39h-244l-38 39l40 43h242zM228 351l-42 -39l-39 38v148h81v-147zM228 39l-42 -40l-39 38v199l39 37l42 -39v-195z" />
    <glyph glyph-name="u" unicode="u" horiz-adv-x="483" 
d="M436 351l-43 -39l-39 38v215l39 38l43 -39v-213zM436 102l-43 -39l-39 37v136l39 37l43 -39v-132zM131 351l-43 -39l-39 38v215l39 38l43 -39v-213zM376 42l-39 -42h-194l-40 42l38 40h196zM131 102l-43 -39l-39 37v136l39 37l43 -39v-132z" />
    <glyph glyph-name="v" unicode="v" horiz-adv-x="483" 
d="M436 351l-43 -39l-39 38v217l39 37l43 -40v-213zM131 351l-43 -39l-39 38v217l39 37l43 -40v-213zM393 228l-188 -187h-57l1 59l186 185l58 1v-58zM131 37l-43 -39l-39 38v200l39 37l43 -39v-197z" />
    <glyph glyph-name="w" unicode="w" horiz-adv-x="483" 
d="M436 366l-43 -39l-39 37v200l39 37l43 -39v-196zM436 100l-43 -39l-39 38v151l39 39l43 -40v-149zM131 366l-43 -39l-39 37v200l39 37l43 -39v-196zM286 101h-82v87l39 39l43 -39v-87zM376 41l-39 -41h-194l-40 41l38 39h196zM131 100l-43 -39l-39 38v151l39 39l43 -40
v-149z" />
    <glyph glyph-name="x" unicode="x" horiz-adv-x="463" 
d="M413 545l-114 -233h-57v58l112 232h59v-57zM219 312h-56l-114 233v57h59l111 -232v-58zM413 0h-59l-112 231v60h57l114 -235v-56zM219 231l-111 -231h-59v56l114 235h56v-60z" />
    <glyph glyph-name="y" unicode="y" horiz-adv-x="483" 
d="M436 351l-43 -39l-39 38v215l39 38l43 -39v-213zM436 102l-43 -39l-39 37v136l39 37l43 -39v-132zM131 351l-43 -39l-39 38v215l39 38l43 -39v-213zM376 292l-39 -40h-196l-38 40l40 42h194zM376 42l-39 -42h-220l-40 42l37 40h223z" />
    <glyph glyph-name="z" unicode="z" horiz-adv-x="425" 
d="M374 560l-39 -39h-246l-37 39l39 43h244zM334 446l-68 -117l-55 -14l-15 56l80 131h58v-56zM224 251l-81 -147h-54v58l64 129l55 15zM374 42l-39 -42h-247l-39 42l38 40h248z" />
    <glyph glyph-name="braceleft" unicode="{" horiz-adv-x="416" 
d="M367 754l-39 -40h-75l-38 39l39 43h74zM242 455l-42 -39l-39 38v242l39 37l42 -40v-238zM181 396l-39 -40h-55l-38 39l39 41h55zM242 102l-42 -39l-39 37v240l39 38l42 -40v-236zM367 42l-39 -42h-74l-39 42l38 40h75z" />
    <glyph glyph-name="bar" unicode="|" horiz-adv-x="182" 
d="M131 359l-43 -39l-39 38v399l39 37l43 -40v-395zM131 -163l-43 -39l-39 37v409l39 37l43 -39v-405z" />
    <glyph glyph-name="braceright" unicode="}" horiz-adv-x="416" 
d="M202 753l-38 -39h-76l-39 40l39 41h74zM256 454l-40 -38l-42 39v238l42 40l40 -37v-242zM367 395l-37 -39h-56l-39 40l38 40h55zM256 100l-40 -37l-42 39v236l42 40l40 -38v-240zM202 42l-40 -42h-74l-39 42l39 40h76z" />
    <glyph glyph-name="asciitilde" unicode="~" horiz-adv-x="389" 
d="M339 738l-107 -54h-56v36l-70 -36h-57v56l104 55h59l-1 -37l69 37h59v-57z" />
    <glyph glyph-name="exclamdown" unicode="&#xa1;" horiz-adv-x="223" 
d="M153 548l-43 -38l-38 40l38 37zM153 250l-43 -40l-38 37v186l38 38l43 -40v-181zM153 -167l-43 -40l-38 38v303l38 38l43 -40v-299z" />
    <glyph glyph-name="cent" unicode="&#xa2;" horiz-adv-x="421" 
d="M272 662h-84v86l41 41l43 -40v-87zM376 595l-39 -39h-196l-38 39l40 43h194zM131 295l-43 -40l-39 38v247l39 37l43 -39v-243zM376 235l-39 -43l-194 1l-40 42l38 39h196zM272 83l-43 -40l-41 41v85h84v-86z" />
    <glyph glyph-name="sterling" unicode="&#xa3;" horiz-adv-x="556" 
d="M455 754l-39 -40h-275l-38 39l40 42h273zM455 396l-39 -40h-275l-38 39l40 43h273zM131 455l-43 -39l-39 38v242l39 37l43 -40v-238zM514 19l-82 81v109l39 37l43 -39v-188zM496 0h-436l81 82h275zM131 102l-82 -81v319l39 38l43 -40v-236z" />
    <glyph glyph-name="yen" unicode="&#xa5;" 
d="M514 455l-43 -39l-39 38v303l39 37l43 -40v-299zM131 455l-43 -39l-39 38v303l39 37l43 -40v-299zM455 396l-39 -40h-275l-38 39l40 43h273zM457 127l-39 -40h-95v-47l-42 -40l-40 37v50h-97l-38 39l39 43h96v42h-97l-38 39l39 43h96v36h82v-36h95l39 -42l-39 -40h-96
v-42h96z" />
    <glyph glyph-name="florin" unicode="&#x192;" horiz-adv-x="445" 
d="M422 832c-9 -24 -29 -39 -56 -39c-16 0 -21 14 -35 22c-49 26 -41 -138 -63 -226l-6 -22h108l-6 -45h-114l-65 -326c-21 -105 -86 -368 -212 -330c-19 5 -36 28 -29 50c8 23 26 39 50 39c26 1 20 -25 38 -30c45 -14 62 133 80 222l75 376h-118l3 45h131l7 29
c25 125 76 285 163 285c28 0 59 -24 49 -50z" />
    <glyph glyph-name="section" unicode="&#xa7;" horiz-adv-x="607" 
d="M559 250c-1 -68 -34 -112 -91 -151l-33 -22c44 -33 63 -71 65 -127c3 -100 -84 -168 -194 -171c-124 -3 -209 96 -204 209h67c-5 -44 5 -81 36 -110c56 -50 177 -52 210 23c25 56 2 120 -51 155l-228 151c-55 37 -84 83 -84 148c0 68 32 113 89 149l28 17
c-40 35 -56 73 -55 126c1 97 93 162 190 163c124 0 204 -90 200 -205l-63 1c6 55 -15 102 -65 128c-67 32 -173 8 -190 -68c-14 -60 25 -107 79 -140l163 -101c71 -43 132 -91 131 -175zM495 238c0 43 -21 74 -58 97l-231 148l-23 -12c-42 -23 -69 -54 -70 -102
c-2 -49 25 -81 66 -108l219 -146l27 17c42 26 70 56 70 106z" />
    <glyph glyph-name="quotesingle" unicode="'" horiz-adv-x="179" 
d="M131 587l-43 -39l-39 38v172l39 38l43 -40v-169z" />
    <glyph glyph-name="quotedblleft" unicode="&#x201c;" horiz-adv-x="336" 
d="M289 746l-55 -85h-53l-1 54l54 80l54 1zM157 746l-54 -85h-53l-1 54l54 80l54 1v-50z" />
    <glyph glyph-name="guillemotleft" unicode="&#xab;" horiz-adv-x="608" 
d="M563 422l-162 -116l158 -112v-117l-224 175v112l228 168v-110zM277 422l-162 -116l158 -112v-117l-224 175v112l228 168v-110z" />
    <glyph glyph-name="endash" unicode="&#x2013;" horiz-adv-x="601" 
d="M553 316l-39 -43h-426l-39 42l39 40h427z" />
    <glyph glyph-name="dagger" unicode="&#x2020;" horiz-adv-x="635" 
d="M586 487h-239v-692h-62v692h-235l-1 68h236v240h63v-241h238v-67z" />
    <glyph glyph-name="periodcentered" unicode="&#xb7;" horiz-adv-x="211" 
d="M162 397l-56 -56l-56 56l56 56z" />
    <glyph glyph-name="paragraph" unicode="&#xb6;" horiz-adv-x="593" 
d="M546 -205h-73v924h-135v-924h-74v568c-117 2 -212 96 -213 213c-2 120 93 219 218 219h277v-1000z" />
    <glyph glyph-name="bullet" unicode="&#x2022;" horiz-adv-x="368" 
d="M318 407l-139 -139l-130 129l139 140z" />
    <glyph glyph-name="quotesinglbase" unicode="&#x201a;" horiz-adv-x="206" 
d="M157 -2l-54 -86h-53l-1 54l54 80l54 1v-49z" />
    <glyph glyph-name="quotedblbase" unicode="&#x201e;" horiz-adv-x="336" 
d="M289 -2l-55 -86h-53l-1 54l54 80l54 1zM157 -2l-54 -86h-53l-1 54l54 80l54 1v-49z" />
    <glyph glyph-name="quotedblright" unicode="&#x201d;" horiz-adv-x="336" 
d="M289 746l-55 -85h-53l-1 54l54 80l54 1zM157 746l-54 -85h-53l-1 54l54 80l54 1v-50z" />
    <glyph glyph-name="guillemotright" unicode="&#xbb;" horiz-adv-x="612" 
d="M563 252l-225 -175v117l158 112l-161 116v110l228 -168v-112zM277 252l-225 -175v117l159 112l-162 116v110l228 -168v-112z" />
    <glyph glyph-name="ellipsis" unicode="&#x2026;" horiz-adv-x="692" 
d="M162 56l-56 -57l-56 56l56 56zM396 56l-57 -57l-55 56l55 56zM626 56l-56 -57l-56 56l56 56z" />
    <glyph glyph-name="questiondown" unicode="&#xbf;" 
d="M507 551l-39 -40l-38 39l38 39zM507 249l-39 -38l-43 40v181l43 39l39 -37v-185zM453 194l-40 -43h-272l-39 42l39 40h275zM453 -164l-40 -43h-272l-39 42l39 40h275zM124 -107l-39 -37l-43 40v238l43 39l39 -38v-242z" />
    <glyph glyph-name="grave" unicode="`" horiz-adv-x="333" 
d="M285 641l-52 -15l-169 98l-15 54l56 17l168 -97z" />
    <glyph glyph-name="acute" unicode="&#xb4;" horiz-adv-x="333" 
d="M285 778l-14 -54l-170 -98l-52 15l13 57l168 97z" />
    <glyph glyph-name="dieresis" unicode="&#xa8;" horiz-adv-x="399" 
d="M351 739l-58 -56l-55 55l55 57zM161 739l-55 -56l-56 55l56 57z" />
    <glyph glyph-name="emdash" unicode="&#x2014;" horiz-adv-x="1099" 
d="M1049 316l-39 -43h-922l-39 42l39 40h923z" />
    <glyph glyph-name="AE" unicode="&#xc6;" horiz-adv-x="894" 
d="M846 754l-39 -40h-274l-39 39l40 43h273zM846 396l-39 -40h-274l-39 39l40 43h273zM514 455l-43 -39l-39 38v242l39 37l43 -40v-238zM455 754l-39 -40h-275l-38 39l40 43h273zM846 42l-39 -42h-355l81 82h274zM455 396l-39 -40h-275l-38 39l40 43h273zM514 99l-82 -84
v325l39 38l43 -40v-239zM131 455l-43 -39l-39 38v242l39 37l43 -40v-238zM131 39l-43 -40l-39 38v303l39 38l43 -40v-299z" />
    <glyph glyph-name="ordfeminine" unicode="&#xaa;" horiz-adv-x="297" 
d="M242 429h-186v38h186v-38zM245 669l-22 -18l-20 18v76l20 20l22 -20v-76zM215 775l-19 -20h-99l-18 18l20 22h97zM215 641l-19 -20h-99l-18 20l20 20h97zM245 514l-22 -20l-20 20v99l20 17l22 -18v-98zM92 669l-21 -18l-19 18v76l19 20l21 -20v-76zM92 514l-21 -20
l-19 20v99l19 17l21 -18v-98z" />
    <glyph glyph-name="Oslash" unicode="&#xd8;" 
d="M514 455l-43 -39l-39 38v242l39 37l43 -40v-238zM455 754l-39 -40h-275l-38 39l40 42h273zM410 639l-72 -215l-53 -13l-15 56l82 226h58v-54zM514 102l-43 -39l-39 37v240l39 38l43 -40v-236zM131 455l-43 -39l-39 38v242l39 37l43 -40v-238zM299 337l-89 -234h-57v54
l78 223l54 13zM455 42l-39 -42h-273l-40 42l38 40h275zM131 102l-43 -39l-39 37v240l39 38l43 -40v-236z" />
    <glyph glyph-name="OE" unicode="&#x152;" horiz-adv-x="893" 
d="M839 754l-39 -40h-275l-37 39l39 42h273zM848 396l-39 -40h-275l-37 39l40 43h272zM514 455l-43 -39l-39 38v242l39 37l43 -40v-238zM455 754l-39 -40h-275l-38 39l40 42h273zM839 42l-39 -42h-272l-40 42l37 40h275zM514 102l-43 -39l-39 37v240l39 38l43 -40v-236z
M131 455l-43 -39l-39 38v242l39 37l43 -40v-238zM455 42l-39 -42h-273l-40 42l38 40h275zM131 102l-43 -39l-39 37v240l39 38l43 -40v-236z" />
    <glyph glyph-name="ordmasculine" unicode="&#xba;" horiz-adv-x="291" 
d="M242 429h-186v38h186v-38zM246 669l-22 -19l-20 18v76l20 20l22 -20v-75zM215 774l-19 -20h-98l-19 19l20 21h97zM246 544l-22 -19l-20 18v69l20 18l22 -19v-67zM93 669l-21 -19l-20 18v76l20 20l21 -20v-75zM215 515l-19 -22h-97l-20 22l19 20h98zM93 544l-21 -19
l-20 18v69l20 18l21 -19v-67z" />
    <glyph glyph-name="ae" unicode="&#xe6;" horiz-adv-x="738" 
d="M683 560l-39 -39h-196l-38 39l39 43h194zM683 292l-39 -40h-196l-38 40l39 42h194zM433 351l-42 -39l-39 38v152l39 38l42 -40v-149zM374 560l-39 -39h-196l-37 39l39 43h194zM683 42l-40 -42h-277l82 82h196zM433 98l-81 -81v219l39 37l42 -39v-136zM374 292l-39 -40
h-196l-37 40l39 42h194zM129 351l-42 -39l-39 38v152l39 38l42 -40v-149zM129 40l-42 -40l-39 37v199l39 37l42 -39v-194z" />
    <glyph glyph-name="oslash" unicode="&#xf8;" horiz-adv-x="483" 
d="M432 351l-42 -39l-39 38v152l39 38l42 -40v-149zM373 560l-39 -39h-196l-38 39l40 43h193zM333 448l-34 -120l-53 -12l-15 55l42 131h60v-54zM432 102l-42 -39l-39 37v136l39 37l42 -39v-132zM127 351l-42 -39l-39 38v152l39 38l42 -40v-149zM258 246l-51 -143h-58v54
l41 132l53 13zM373 42l-40 -42h-194l-39 42l38 40h196zM127 102l-42 -39l-39 37v136l39 37l42 -39v-132z" />
    <glyph glyph-name="oe" unicode="&#x153;" horiz-adv-x="730" 
d="M683 560l-39 -39h-196l-38 39l39 43h194zM683 292l-39 -40h-196l-38 40l39 42h194zM433 351l-42 -39l-39 38v152l39 38l42 -40v-149zM374 560l-39 -39h-196l-37 39l39 43h194zM683 42l-40 -42h-277l82 82h196zM433 103l-42 -40l-39 37v140l39 37l42 -39v-135zM129 351
l-42 -39l-39 38v152l39 38l42 -40v-149zM374 42l-39 -42h-194l-39 43l37 39h196zM129 103l-42 -40l-39 37v142l39 37l42 -39v-137z" />
    <glyph glyph-name="germandbls" unicode="&#xdf;" horiz-adv-x="676" 
d="M628 455l-42 -39l-39 38v242l39 37l42 -40v-238zM569 754l-39 -40h-275l-37 39l40 42h272zM569 396l-39 -40h-117l-38 40l39 42h115zM628 102l-42 -39l-39 37v240l39 38l42 -40v-236zM245 455l-42 -39l-39 38v242l39 37l42 -40v-238zM569 40l-39 -40h-117l-38 40l39 42
h115zM245 24l-81 76v240l39 38l42 -40v-314zM237 0h-149l-39 42l39 40h66z" />
    <glyph glyph-name="Adieresis" unicode="&#xc4;" horiz-adv-x="562" 
d="M513 455l-42 -39l-39 38v242l39 37l42 -40v-238zM454 754l-39 -40h-275l-37 39l38 42h273zM454 396l-39 -40h-275l-37 39l38 43h273zM130 455l-43 -39l-39 38v242l39 37l43 -40v-238zM513 39l-42 -40l-39 38v303l39 38l42 -40v-299zM130 39l-43 -40l-39 38v303l39 38
l43 -40v-299zM430 944l-58 -56l-55 55l55 57zM240 944l-55 -56l-56 55l56 57z" />
    <glyph glyph-name="Aring" unicode="&#xc5;" horiz-adv-x="559" 
d="M369 948l-86 -78l-79 75l79 81zM513 455l-42 -39l-39 38v242l39 37l42 -40v-238zM454 754l-39 -40h-275l-37 39l38 42h273zM454 396l-39 -40h-275l-37 39l38 43h273zM130 455l-43 -39l-39 38v242l39 37l43 -40v-238zM513 39l-42 -40l-39 38v303l39 38l42 -40v-299z
M130 39l-43 -40l-39 38v303l39 38l43 -40v-299zM310 948l-25 23l-24 -24l24 -23z" />
    <glyph glyph-name="Ccedilla" unicode="&#xc7;" horiz-adv-x="506" 
d="M455 754l-39 -40h-275l-38 39l39 42h274zM131 455l-43 -39l-39 38v242l39 37l43 -40v-238zM455 42l-39 -42h-273l-40 42l38 40h275zM131 102l-43 -39l-39 37v240l39 38l43 -40v-236zM324 -22l-39 -82l-39 -37l-43 39l39 80h82z" />
    <glyph glyph-name="Eacute" unicode="&#xc9;" horiz-adv-x="500" 
d="M455 754l-39 -40h-275l-77 82h352zM131 455l-43 -39l-39 38v322l82 -83v-238zM455 396l-39 -40h-275l-38 39l40 43h273zM455 42l-39 -42h-356l81 82h275zM131 102l-82 -81v319l39 38l43 -40v-236zM374 1040l-14 -54l-170 -98l-52 15l13 57l168 97z" />
    <glyph glyph-name="Ntilde" unicode="&#xd1;" 
d="M514 455l-43 -39l-39 38v303l39 37l43 -40v-299zM409 453l-54 1l-199 247l-1 55l57 -1l197 -245v-57zM131 455l-43 -39l-39 38v303l39 37l43 -40v-299zM514 39l-43 -40l-39 38v303l39 38l43 -40v-299zM131 39l-43 -40l-39 38v303l39 38l43 -40v-299zM437 941l-107 -54
h-56v36l-70 -36h-57v56l104 55h59l-1 -37l69 37h59v-57z" />
    <glyph glyph-name="Odieresis" unicode="&#xd6;" horiz-adv-x="558" 
d="M514 455l-43 -39l-39 38v242l39 37l43 -40v-238zM455 754l-39 -40h-275l-38 39l40 43h273zM514 102l-43 -39l-39 37v240l39 38l43 -40v-236zM131 455l-43 -39l-39 38v242l39 37l43 -40v-238zM455 42l-39 -42h-273l-40 42l38 40h275zM131 102l-43 -39l-39 37v240l39 38
l43 -40v-236zM436 944l-58 -56l-55 55l55 57zM246 944l-55 -56l-56 55l56 57z" />
    <glyph glyph-name="Udieresis" unicode="&#xdc;" horiz-adv-x="562" 
d="M514 455l-43 -39l-39 38v304l39 37l43 -40v-300zM131 455l-43 -39l-39 38v304l39 37l43 -40v-300zM514 102l-43 -39l-39 37v240l39 38l43 -40v-236zM455 42l-39 -42h-273l-40 42l38 40h275zM131 102l-43 -39l-39 37v240l39 38l43 -40v-236zM429 942l-58 -56l-55 55l55 57
zM239 942l-55 -56l-56 55l56 57z" />
    <glyph glyph-name="aacute" unicode="&#xe1;" horiz-adv-x="487" 
d="M436 351l-43 -39l-39 38v152l39 38l43 -40v-149zM376 560l-39 -39h-196l-38 39l40 43h194zM376 292l-39 -40h-196l-38 40l40 42l194 -1zM436 40l-43 -40l-39 37v199l39 37l43 -39v-194zM131 351l-43 -39l-39 38v152l39 38l43 -40v-149zM131 40l-43 -40l-39 37v199l39 37
l43 -39v-194zM361 838l-14 -54l-170 -98l-52 15l13 57l168 97z" />
    <glyph glyph-name="agrave" unicode="&#xe0;" horiz-adv-x="483" 
d="M432 351l-43 -39l-39 38v152l39 38l43 -40v-149zM372 560l-39 -39h-196l-38 39l40 43h194zM372 292l-39 -40h-196l-38 40l40 42l194 -1zM432 40l-43 -40l-39 37v199l39 37l43 -39v-194zM127 351l-43 -39l-39 38v152l39 38l43 -40v-149zM127 40l-43 -40l-39 37v199l39 37
l43 -39v-194zM359 702l-52 -15l-169 98l-15 54l56 16l168 -97z" />
    <glyph glyph-name="acircumflex" unicode="&#xe2;" horiz-adv-x="475" 
d="M428 351l-42 -39l-39 38v152l39 38l42 -40v-149zM369 560l-39 -39h-196l-38 39l40 43h194zM369 292l-39 -40h-196l-38 40l40 42l194 -1zM428 40l-42 -40l-39 37v199l39 37l42 -39v-194zM124 351l-43 -39l-39 38v152l39 38l43 -40v-149zM124 40l-43 -40l-39 37v199l39 37
l43 -39v-194zM384 686h-56l-74 72v56h59l71 -69v-59zM229 758l-73 -72h-57v59l71 69h59v-56z" />
    <glyph glyph-name="adieresis" unicode="&#xe4;" horiz-adv-x="483" 
d="M438 351l-43 -39l-39 38v152l39 38l43 -40v-149zM378 560l-39 -39h-196l-37 39l39 43h194zM378 292l-39 -40h-196l-37 40l39 42l194 -1zM438 40l-43 -40l-39 37v199l39 37l43 -39v-194zM134 351l-43 -39l-39 38v152l39 38l43 -40v-149zM134 40l-43 -40l-39 37v199l39 37
l43 -39v-194zM397 742l-57 -56l-55 55l55 57zM208 742l-55 -56l-56 56l56 56z" />
    <glyph glyph-name="atilde" unicode="&#xe3;" horiz-adv-x="479" 
d="M432 351l-43 -39l-39 38v152l39 38l43 -40v-149zM372 560l-39 -39h-196l-38 39l40 43h194zM372 292l-39 -40h-196l-38 40l40 42l194 -1zM432 40l-43 -40l-39 37v199l39 37l43 -39v-194zM127 351l-43 -39l-39 38v152l39 38l43 -40v-149zM127 40l-43 -40l-39 37v199l39 37
l43 -39v-194zM395 742l-106 -55h-57v36l-70 -36h-56v56l104 55h59l-1 -36l68 36h59v-56z" />
    <glyph glyph-name="aring" unicode="&#xe5;" horiz-adv-x="486" 
d="M331 760l-85 -79l-79 75l79 82zM436 351l-43 -39l-39 38v152l39 38l43 -40v-149zM376 560l-39 -39h-196l-38 39l40 43h194zM376 292l-39 -40h-196l-38 40l40 42l194 -1zM436 40l-43 -40l-39 37v199l39 37l43 -39v-194zM131 351l-43 -39l-39 38v152l39 38l43 -40v-149z
M131 40l-43 -40l-39 37v199l39 37l43 -39v-194zM273 759l-27 23l-23 -24l23 -23z" />
    <glyph glyph-name="ccedilla" unicode="&#xe7;" horiz-adv-x="425" 
d="M376 560l-39 -39h-196l-38 39l40 43h194zM131 102l-43 -39l-39 37v405l39 37l43 -40v-400zM376 42l-39 -42h-194l-40 42l38 40h196zM277 -22l-39 -82l-40 -37l-42 39l40 77z" />
    <glyph glyph-name="eacute" unicode="&#xe9;" horiz-adv-x="428" 
d="M376 560l-39 -39h-196l-38 39l40 43h194zM376 292l-39 -40h-196l-38 40l40 42h194zM131 351l-43 -39l-39 38v152l39 38l43 -40v-149zM376 42l-39 -42h-194l-40 42l38 40h196zM131 102l-43 -39l-39 37v136l39 37l43 -39v-132zM351 838l-14 -54l-170 -98l-52 15l13 57
l168 97z" />
    <glyph glyph-name="egrave" unicode="&#xe8;" horiz-adv-x="429" 
d="M376 560l-39 -39h-196l-38 39l40 43h194zM376 292l-39 -40h-196l-38 40l40 42h194zM131 351l-43 -39l-39 38v152l39 38l43 -40v-149zM376 42l-39 -42h-194l-40 42l38 40h196zM131 102l-43 -39l-39 37v136l39 37l43 -39v-132zM335 701l-52 -15l-169 98l-15 54l56 17
l168 -97z" />
    <glyph glyph-name="ecircumflex" unicode="&#xea;" horiz-adv-x="428" 
d="M376 560l-39 -39h-196l-38 39l40 43h194zM376 292l-39 -40h-196l-38 40l40 42h194zM131 351l-43 -39l-39 38v152l39 38l43 -40v-149zM376 42l-39 -42h-194l-40 42l38 40h196zM131 102l-43 -39l-39 37v136l39 37l43 -39v-132zM363 686h-57l-73 71v57h59l71 -69v-59z
M208 757l-73 -71h-57v59l71 69h59v-57z" />
    <glyph glyph-name="edieresis" unicode="&#xeb;" horiz-adv-x="424" 
d="M376 560l-39 -39h-196l-38 39l40 43h194zM376 292l-39 -40h-196l-38 40l40 42h194zM131 351l-43 -39l-39 38v152l39 38l43 -40v-149zM376 42l-39 -42h-194l-40 42l38 40h196zM131 102l-43 -39l-39 37v136l39 37l43 -39v-132zM368 742l-58 -56l-55 55l55 57zM178 742
l-55 -56l-56 55l56 57z" />
    <glyph glyph-name="iacute" unicode="&#xed;" horiz-adv-x="224" 
d="M159 352l-42 -39l-40 38v216l40 38l42 -40v-213zM159 38l-42 -40l-40 39v200l40 37l42 -39v-197zM231 839l-14 -54l-170 -98l-52 15l13 56l168 97z" />
    <glyph glyph-name="igrave" unicode="&#xec;" horiz-adv-x="224" 
d="M160 352l-42 -39l-40 38v216l40 38l42 -40v-213zM160 38l-42 -40l-40 39v200l40 37l42 -39v-197zM232 702l-52 -15l-170 98l-14 54l56 16l167 -97z" />
    <glyph glyph-name="icircumflex" unicode="&#xee;" horiz-adv-x="224" 
d="M153 352l-42 -39l-39 38v216l39 38l42 -40v-213zM153 38l-42 -40l-39 39v200l39 37l42 -39v-197zM251 686h-56l-73 72v56h58l71 -69v-59zM96 758l-73 -72h-56v59l70 69h59v-56z" />
    <glyph glyph-name="idieresis" unicode="&#xef;" horiz-adv-x="224" 
d="M160 354l-42 -39l-40 37v216l40 39l42 -40v-213zM160 40l-42 -40l-40 38v200l40 38l42 -39v-197zM268 739l-57 -56l-56 55l56 57zM79 739l-56 -56l-56 55l56 57z" />
    <glyph glyph-name="ntilde" unicode="&#xf1;" horiz-adv-x="487" 
d="M436 351l-43 -39l-39 38v217l39 37l43 -40v-213zM339 350h-56l-134 158v56h59l131 -155v-59zM131 351l-43 -39l-39 38v217l39 37l43 -40v-213zM436 37l-43 -39l-39 38v200l39 37l43 -39v-197zM131 37l-43 -39l-39 38v200l39 37l43 -39v-197zM387 741l-107 -54h-56v36
l-70 -36h-57v56l104 55h59l-1 -37l69 37h59v-57z" />
    <glyph glyph-name="oacute" unicode="&#xf3;" horiz-adv-x="483" 
d="M436 351l-43 -39l-39 38v152l39 38l43 -40v-149zM376 560l-39 -39h-196l-38 39l40 43h194zM436 102l-43 -39l-39 37v136l39 37l43 -39v-132zM131 351l-43 -39l-39 38v152l39 38l43 -40v-149zM376 42l-39 -42h-194l-40 42l38 40h196zM131 102l-43 -39l-39 37v136l39 37
l43 -39v-132zM357 838l-14 -54l-170 -98l-52 15l13 57l168 97z" />
    <glyph glyph-name="ograve" unicode="&#xf2;" horiz-adv-x="483" 
d="M436 351l-43 -39l-39 38v152l39 38l43 -40v-149zM376 560l-39 -39h-196l-38 39l40 43h194zM436 102l-43 -39l-39 37v136l39 37l43 -39v-132zM131 351l-43 -39l-39 38v152l39 38l43 -40v-149zM376 42l-39 -42h-194l-40 42l38 40h196zM131 102l-43 -39l-39 37v136l39 37
l43 -39v-132zM363 702l-52 -15l-169 98l-15 54l56 17l168 -97z" />
    <glyph glyph-name="ocircumflex" unicode="&#xf4;" horiz-adv-x="483" 
d="M436 351l-43 -39l-39 38v152l39 38l43 -40v-149zM376 560l-39 -39h-196l-38 39l40 43h194zM436 102l-43 -39l-39 37v136l39 37l43 -39v-132zM131 351l-43 -39l-39 38v152l39 38l43 -40v-149zM376 42l-39 -42h-194l-40 42l38 40h196zM131 102l-43 -39l-39 37v136l39 37
l43 -39v-132zM382 686h-57l-73 71v57h59l71 -69v-59zM227 757l-73 -71h-57v59l71 69h59v-57z" />
    <glyph glyph-name="odieresis" unicode="&#xf6;" horiz-adv-x="483" 
d="M436 351l-43 -39l-39 38v152l39 38l43 -40v-149zM376 560l-39 -39h-196l-38 39l40 43h194zM436 102l-43 -39l-39 37v136l39 37l43 -39v-132zM131 351l-43 -39l-39 38v152l39 38l43 -40v-149zM376 42l-39 -42h-194l-40 42l38 40h196zM131 102l-43 -39l-39 37v136l39 37
l43 -39v-132zM388 742l-58 -56l-55 55l55 57zM198 742l-55 -56l-56 55l56 57z" />
    <glyph glyph-name="otilde" unicode="&#xf5;" horiz-adv-x="482" 
d="M436 351l-43 -39l-39 38v152l39 38l43 -40v-149zM376 560l-39 -39h-196l-38 39l40 43h194zM436 102l-43 -39l-39 37v136l39 37l43 -39v-132zM131 351l-43 -39l-39 38v152l39 38l43 -40v-149zM376 42l-39 -42h-194l-40 42l38 40h196zM131 102l-43 -39l-39 37v136l39 37
l43 -39v-132zM389 741l-107 -54h-56v36l-70 -36h-57v56l104 55h59l-1 -37l69 37h59v-57z" />
    <glyph glyph-name="uacute" unicode="&#xfa;" horiz-adv-x="486" 
d="M436 351l-43 -39l-39 38v215l39 38l43 -39v-213zM436 102l-43 -39l-39 37v136l39 37l43 -39v-132zM131 351l-43 -39l-39 38v215l39 38l43 -39v-213zM376 42l-39 -42h-194l-40 42l38 40h196zM131 102l-43 -39l-39 37v136l39 37l43 -39v-132zM364 838l-14 -54l-170 -98
l-52 15l13 57l168 97z" />
    <glyph glyph-name="ugrave" unicode="&#xf9;" horiz-adv-x="482" 
d="M436 351l-43 -39l-39 38v215l39 38l43 -39v-213zM436 102l-43 -39l-39 37v136l39 37l43 -39v-132zM131 351l-43 -39l-39 38v215l39 38l43 -39v-213zM376 42l-39 -42h-194l-40 42l38 40h196zM131 102l-43 -39l-39 37v136l39 37l43 -39v-132zM365 701l-52 -15l-169 98
l-15 54l56 17l168 -97z" />
    <glyph glyph-name="ucircumflex" unicode="&#xfb;" horiz-adv-x="481" 
d="M436 351l-43 -39l-39 38v215l39 38l43 -39v-213zM436 102l-43 -39l-39 37v136l39 37l43 -39v-132zM131 351l-43 -39l-39 38v215l39 38l43 -39v-213zM376 42l-39 -42h-194l-40 42l38 40h196zM131 102l-43 -39l-39 37v136l39 37l43 -39v-132zM385 686h-57l-73 71v57h59
l71 -69v-59zM230 757l-73 -71h-57v59l71 69h59v-57z" />
    <glyph glyph-name="udieresis" unicode="&#xfc;" horiz-adv-x="486" 
d="M436 351l-43 -39l-39 38v215l39 38l43 -39v-213zM436 102l-43 -39l-39 37v136l39 37l43 -39v-132zM131 351l-43 -39l-39 38v215l39 38l43 -39v-213zM376 42l-39 -42h-194l-40 42l38 40h196zM131 102l-43 -39l-39 37v136l39 37l43 -39v-132zM393 742l-58 -56l-55 55l55 57
zM203 742l-55 -56l-56 55l56 57z" />
    <glyph glyph-name="degree" unicode="&#xb0;" horiz-adv-x="412" 
d="M300 753l-38 -40h-121l-38 40l40 42h119zM360 576l-43 -39l-39 38v117l39 37l43 -40v-113zM131 576l-43 -39l-39 38v117l39 37l43 -40v-113zM300 517l-38 -43l-119 1l-40 42l38 39h121z" />
    <glyph glyph-name="registered" unicode="&#xae;" horiz-adv-x="878" 
d="M440 8c-519 0 -519 780 0 780c520 0 520 -780 0 -780zM440 49c465 0 465 697 0 697c-464 0 -464 -697 0 -697zM626 158h-48c-1 0 -3 -1 -3 1c-30 59 13 165 -52 200c-24 13 -43 11 -71 11h-124v-212h-46v468h172c82 0 164 -17 172 -122c4 -58 -28 -95 -78 -116
c20 -11 34 -17 45 -38c31 -60 -2 -105 23 -174c3 -7 6 -11 10 -18zM581 499c-2 73 -62 88 -119 88h-134v-178l131 1c58 0 124 15 122 89z" />
    <glyph glyph-name="copyright" unicode="&#xa9;" horiz-adv-x="878" 
d="M440 8c-519 0 -519 780 0 780c520 0 520 -780 0 -780zM440 49c465 0 465 697 0 697c-464 0 -464 -697 0 -697zM633 319c-19 -100 -98 -173 -204 -166c-146 9 -192 122 -193 241c-1 126 68 254 207 249c87 -2 167 -46 182 -132l3 -18h-47l-3 15c-14 62 -76 95 -135 93
c-119 -3 -161 -104 -161 -205c0 -99 22 -190 150 -204c70 -8 140 51 154 127h47z" />
    <glyph glyph-name="trademark" unicode="&#x2122;" horiz-adv-x="769" 
d="M723 408h-39v345l-128 -344h-35l-124 345v-346h-38v388h59l123 -341l125 340h57v-387zM330 762h-123v-357h-37v357h-121v33h281v-33z" />
    <glyph glyph-name="notequal" unicode="&#x2260;" horiz-adv-x="669" 
d="M623 141h-332l-97 -173l-54 32l79 141h-170v64h206l81 150h-287v63h325l100 178l53 -32l-82 -146h178v-63h-211l-88 -150h299v-64z" />
    <glyph glyph-name="infinity" unicode="&#x221e;" horiz-adv-x="892" 
d="M847 282c4 -107 -81 -175 -164 -174c-55 1 -127 26 -182 79l-52 47l-52 -47c-56 -53 -128 -78 -182 -79c-84 -1 -167 67 -164 174c2 89 77 155 167 160c57 3 114 -28 167 -76l64 -58l65 58c52 47 109 79 166 76c90 -5 165 -71 167 -160zM789 277c-4 61 -51 106 -113 104
c-48 -3 -76 -20 -114 -49l-77 -58l71 -66c36 -33 70 -46 118 -45c71 2 120 52 115 114zM413 274l-77 58c-38 29 -66 46 -113 49c-62 2 -109 -43 -114 -104c-5 -62 44 -112 114 -114c50 -1 82 12 119 45z" />
    <glyph glyph-name="plusminus" unicode="&#xb1;" horiz-adv-x="535" 
d="M488 320h-191v-191h-50v191h-190l1 54h189v191h51v-191h190v-54zM484 -2h-435v42h435v-42z" />
    <glyph glyph-name="lessequal" unicode="&#x2264;" horiz-adv-x="638" 
d="M589 139l-540 253v58l539 245v-73l-449 -201l450 -211v-71zM588 0h-538v61h537z" />
    <glyph glyph-name="greaterequal" unicode="&#x2265;" horiz-adv-x="638" 
d="M589 392l-540 -253v71l450 211l-449 201v73l539 -245v-58zM587 0h-537v61h537v-61z" />
    <glyph glyph-name="mu" unicode="&#xb5;" horiz-adv-x="678" 
d="M630 113l-7 -35c-13 -64 -94 -106 -137 -99c-48 7 -97 54 -100 112l-29 -28c-45 -46 -104 -81 -145 -81c-32 1 -96 22 -129 67v-40c0 -74 38 -100 39 -186c1 -36 -20 -75 -57 -74c-33 1 -53 33 -54 67c-2 73 28 92 34 151c1 12 2 20 2 32v569h96v-392
c0 -61 41 -122 103 -121c57 1 142 55 143 121v392h93v-442c0 -45 26 -101 70 -93c26 5 42 24 49 50l9 30h20z" />
    <glyph glyph-name="partialdiff" unicode="&#x2202;" horiz-adv-x="579" 
d="M533 428c16 -203 -100 -460 -279 -442c-131 12 -197 99 -202 213c-7 125 91 239 216 238c56 -1 91 -18 137 -51l33 -23l8 55c23 148 -33 340 -182 340c-42 0 -65 -15 -106 -27l-19 -6l-41 51l46 13c38 11 62 17 102 16c184 -3 274 -194 287 -377zM429 323l-29 28
c-22 21 -41 32 -72 39c-87 19 -152 -62 -175 -148c-25 -90 -4 -197 85 -225c105 -32 155 114 175 222z" />
    <glyph glyph-name="summation" unicode="&#x2211;" horiz-adv-x="839" 
d="M793 158c-16 -48 -24 -76 -31 -125c-8 -44 -12 -71 -12 -116l-78 15h-623l387 425l-380 474l70 -7h590l2 -174h-23c1 39 -11 68 -41 95c-32 28 -63 29 -106 29h-318l306 -369l-328 -368h437c30 0 49 8 73 26c32 25 48 54 51 95h24z" />
    <glyph glyph-name="product" unicode="&#x220f;" horiz-adv-x="958" 
d="M907 -74h-339v20l27 2c25 0 45 0 62 18c20 20 16 44 16 74v717h-397v-711c0 -33 1 -63 28 -83c20 -15 38 -15 63 -15h22v-22h-340v24h27c24 0 42 0 60 15c25 20 24 49 24 82v646c0 34 -11 57 -35 78c-17 14 -30 22 -52 24l-18 2v22h852v-24l-24 -1c-21 -1 -35 -9 -51 -21
c-30 -25 -35 -57 -35 -96v-639c0 -30 1 -53 23 -73c19 -17 37 -20 62 -21h25v-18z" />
    <glyph glyph-name="pi" unicode="&#x3c0;" horiz-adv-x="692" 
d="M651 184l-3 -26c-10 -84 -65 -164 -150 -158c-94 7 -108 130 -98 224l27 250h-136l-47 -369c-6 -55 -39 -125 -92 -110c-23 7 -42 18 -49 41c-15 61 50 74 70 125c9 22 18 34 20 58l27 251h-38c-21 0 -34 1 -54 -7c-31 -11 -55 -50 -59 -62l-20 8l7 16
c25 55 38 100 92 127c26 12 45 17 75 17h420v-95h-153l-15 -278c-2 -48 28 -100 76 -98c38 1 64 28 72 66l6 20h22z" />
    <glyph glyph-name="integral" unicode="&#x222b;" horiz-adv-x="371" 
d="M320 839c-3 -24 -23 -40 -47 -40c-17 0 -24 14 -40 22c-50 24 -10 -163 -10 -267v-336c0 -108 -9 -367 -136 -332c-19 6 -42 26 -40 50c2 23 19 39 40 41c26 1 25 -25 45 -31c45 -13 29 136 29 223v467c0 106 12 253 99 253c30 1 65 -20 60 -50z" />
    <glyph glyph-name="Omega" unicode="&#x3a9;" horiz-adv-x="862" 
d="M813 -2h-319l16 158c104 47 151 141 151 256c-2 127 -37 236 -227 237c-174 2 -231 -108 -232 -237c-2 -115 46 -209 151 -256l16 -158h-320v167h21c-1 -16 2 -26 10 -39c14 -19 33 -27 57 -27h175v33c-140 25 -228 140 -233 281c-7 172 151 269 353 269
c215 -1 358 -97 352 -269c-5 -141 -94 -257 -233 -281v-33h175c24 0 43 8 56 27c8 13 11 23 11 39h20v-167z" />
    <glyph glyph-name="logicalnot" unicode="&#xac;" horiz-adv-x="874" 
d="M830 0h-64v273h-717v59h781v-332z" />
    <glyph glyph-name="radical" unicode="&#x221a;" horiz-adv-x="601" 
d="M553 855l-149 -922l-246 488l-94 -49l-15 33l144 68l198 -389l129 776z" />
    <glyph glyph-name="approxequal" unicode="&#x2248;" horiz-adv-x="738" 
d="M693 417l-24 -26c-41 -48 -83 -66 -146 -69c-47 -2 -74 15 -119 28l-97 27c-38 10 -63 21 -102 14c-37 -8 -60 -21 -86 -49l-20 -22l-50 34l17 16c41 45 77 66 137 74c49 8 80 0 128 -15l86 -25c39 -12 62 -27 104 -24c43 4 74 13 104 44l21 23zM693 230l-24 -27
c-41 -48 -83 -66 -146 -69c-47 -3 -74 15 -119 27l-97 27c-38 11 -63 22 -102 15c-37 -8 -60 -22 -86 -50l-20 -21l-50 33l17 18c41 44 77 64 137 73c49 8 80 -1 128 -15l86 -26c39 -12 62 -27 104 -23c43 4 74 12 104 44l21 22z" />
    <glyph glyph-name="Delta" unicode="&#x394;" horiz-adv-x="800" 
d="M759 -1h-710l379 796zM618 52l-234 555l-261 -555h495z" />
    <glyph glyph-name="nbspace" unicode="&#xa0;" horiz-adv-x="405" 
 />
    <glyph glyph-name="Agrave" unicode="&#xc0;" 
d="M517 455l-42 -39l-39 38v242l39 37l42 -40v-238zM458 754l-39 -40h-275l-37 39l38 42h273zM458 396l-39 -40h-275l-37 39l38 43h273zM134 455l-43 -39l-39 38v242l39 37l43 -40v-238zM517 39l-42 -40l-39 38v303l39 38l42 -40v-299zM134 39l-43 -40l-39 38v303l39 38
l43 -40v-299zM407 901l-52 -15l-170 97l-14 54l56 17l167 -97z" />
    <glyph glyph-name="Atilde" unicode="&#xc3;" 
d="M513 455l-42 -39l-39 38v242l39 37l42 -40v-238zM454 754l-39 -40h-275l-37 39l38 42h273zM454 396l-39 -40h-275l-37 39l38 43h273zM130 455l-43 -39l-39 38v242l39 37l43 -40v-238zM513 39l-42 -40l-39 38v303l39 38l42 -40v-299zM130 39l-43 -40l-39 38v303l39 38
l43 -40v-299zM432 941l-107 -54h-56v36l-70 -36h-57v56l104 55h59l-1 -37l69 37h59v-57z" />
    <glyph glyph-name="Otilde" unicode="&#xd5;" horiz-adv-x="562" 
d="M514 455l-43 -39l-39 38v242l39 37l43 -40v-238zM455 754l-39 -40h-275l-38 39l40 43h273zM514 102l-43 -39l-39 37v240l39 38l43 -40v-236zM131 455l-43 -39l-39 38v242l39 37l43 -40v-238zM455 42l-39 -42h-273l-40 42l38 40h275zM131 102l-43 -39l-39 37v240l39 38
l43 -40v-236zM431 941l-107 -54h-56v36l-70 -36h-57v56l104 55h59l-1 -37l69 37h59v-57z" />
    <glyph glyph-name="divide" unicode="&#xf7;" horiz-adv-x="757" 
d="M444 493c1 -40 -32 -73 -72 -72c-39 1 -70 34 -69 73s32 70 71 70s70 -32 70 -71zM709 285h-660v72h660v-72zM444 149c0 -39 -33 -73 -73 -72c-39 1 -69 34 -69 73c1 38 33 69 71 69c39 0 71 -31 71 -70z" />
    <glyph glyph-name="lozenge" unicode="&#x25ca;" horiz-adv-x="575" 
d="M525 392l-203 -394h-67l-206 399l206 380h67zM463 392l-175 327l-176 -324l177 -347z" />
    <glyph glyph-name="ydieresis" unicode="&#xff;" horiz-adv-x="481" 
d="M436 351l-43 -39l-39 38v215l39 38l43 -39v-213zM436 102l-43 -39l-39 37v136l39 37l43 -39v-132zM131 351l-43 -39l-39 38v215l39 38l43 -39v-213zM376 292l-39 -40h-196l-38 40l40 42h194zM376 42l-39 -42h-220l-40 42l37 40h223zM388 742l-58 -56l-55 55l55 57z
M198 742l-55 -56l-56 55l56 57z" />
    <glyph glyph-name="Ydieresis" unicode="&#x178;" 
d="M514 455l-43 -39l-39 38v303l39 37l43 -40v-299zM131 455l-43 -39l-39 38v303l39 37l43 -40v-299zM514 102l-43 -39l-39 37v240l39 38l43 -40v-236zM455 396l-39 -40h-275l-38 39l40 43h273zM455 42l-39 -42h-325l-40 42l37 40h328zM434 942l-58 -56l-55 55l55 57z
M244 942l-55 -56l-56 55l56 57z" />
    <glyph glyph-name="Acircumflex" unicode="&#xc2;" 
d="M513 455l-42 -39l-39 38v242l39 37l42 -40v-238zM454 754l-39 -40h-275l-37 39l38 42h273zM454 396l-39 -40h-275l-37 39l38 43h273zM130 455l-43 -39l-39 38v242l39 37l43 -40v-238zM513 39l-42 -40l-39 38v303l39 38l42 -40v-299zM130 39l-43 -40l-39 38v303l39 38
l43 -40v-299zM423 886h-57l-73 71v57h59l71 -69v-59zM268 957l-73 -71h-57v59l71 69h59v-57z" />
    <glyph glyph-name="Ecircumflex" unicode="&#xca;" horiz-adv-x="504" 
d="M455 754l-39 -40h-275l-77 82h352zM131 455l-43 -39l-39 38v322l82 -83v-238zM455 396l-39 -40h-275l-38 39l40 43h273zM455 42l-39 -42h-356l81 82h275zM131 102l-82 -81v319l39 38l43 -40v-236zM394 886h-57l-73 71v57h59l71 -69v-59zM239 957l-73 -71h-57v59l71 69h59
v-57z" />
    <glyph glyph-name="Aacute" unicode="&#xc1;" 
d="M513 455l-42 -39l-39 38v242l39 37l42 -40v-238zM454 754l-39 -40h-275l-37 39l38 42h273zM454 396l-39 -40h-275l-37 39l38 43h273zM130 455l-43 -39l-39 38v242l39 37l43 -40v-238zM513 39l-42 -40l-39 38v303l39 38l42 -40v-299zM130 39l-43 -40l-39 38v303l39 38
l43 -40v-299zM399 1039l-14 -54l-170 -98l-52 15l13 57l168 97z" />
    <glyph glyph-name="Edieresis" unicode="&#xcb;" horiz-adv-x="504" 
d="M455 754l-39 -40h-275l-77 82h352zM131 455l-43 -39l-39 38v322l82 -83v-238zM455 396l-39 -40h-275l-38 39l40 43h273zM455 42l-39 -42h-356l81 82h275zM131 102l-82 -81v319l39 38l43 -40v-236zM396 942l-58 -56l-55 55l55 57zM206 942l-55 -56l-56 55l56 57z" />
    <glyph glyph-name="Egrave" unicode="&#xc8;" horiz-adv-x="504" 
d="M455 754l-39 -40h-275l-77 82h352zM131 455l-43 -39l-39 38v322l82 -83v-238zM455 396l-39 -40h-275l-38 39l40 43h273zM455 42l-39 -42h-356l81 82h275zM131 102l-82 -81v319l39 38l43 -40v-236zM371 902l-52 -15l-169 98l-15 54l56 17l168 -97z" />
    <glyph glyph-name="Iacute" unicode="&#xcd;" horiz-adv-x="224" 
d="M154 455l-42 -39l-40 38v303l40 37l42 -40v-299zM154 39l-42 -40l-40 38v303l40 38l42 -40v-299zM221 1039l-14 -54l-170 -98l-52 15l13 57l168 97z" />
    <glyph glyph-name="Icircumflex" unicode="&#xce;" horiz-adv-x="224" 
d="M154 455l-42 -39l-40 38v303l40 37l42 -40v-299zM154 39l-42 -40l-40 38v303l40 38l42 -40v-299zM255 886h-57l-73 71v57h59l71 -69v-59zM100 957l-73 -71h-57v59l71 69h59v-57z" />
    <glyph glyph-name="Idieresis" unicode="&#xcf;" horiz-adv-x="224" 
d="M154 455l-42 -39l-40 38v303l40 37l42 -40v-299zM154 39l-42 -40l-40 38v303l40 38l42 -40v-299zM262 942l-58 -56l-55 55l55 57zM72 942l-55 -56l-56 55l56 57z" />
    <glyph glyph-name="Igrave" unicode="&#xcc;" horiz-adv-x="224" 
d="M154 455l-42 -39l-40 38v303l40 37l42 -40v-299zM154 39l-42 -40l-40 38v303l40 38l42 -40v-299zM231 902l-52 -15l-169 98l-15 54l56 17l168 -97z" />
    <glyph glyph-name="Oacute" unicode="&#xd3;" 
d="M514 455l-43 -39l-39 38v242l39 37l43 -40v-238zM455 754l-39 -40h-275l-38 39l40 43h273zM514 102l-43 -39l-39 37v240l39 38l43 -40v-236zM131 455l-43 -39l-39 38v242l39 37l43 -40v-238zM455 42l-39 -42h-273l-40 42l38 40h275zM131 102l-43 -39l-39 37v240l39 38
l43 -40v-236zM396 1039l-14 -54l-170 -98l-52 15l13 57l168 97z" />
    <glyph glyph-name="Ocircumflex" unicode="&#xd4;" 
d="M514 455l-43 -39l-39 38v242l39 37l43 -40v-238zM455 754l-39 -40h-275l-38 39l40 43h273zM514 102l-43 -39l-39 37v240l39 38l43 -40v-236zM131 455l-43 -39l-39 38v242l39 37l43 -40v-238zM455 42l-39 -42h-273l-40 42l38 40h275zM131 102l-43 -39l-39 37v240l39 38
l43 -40v-236zM426 886h-57l-73 71v57h59l71 -69v-59zM271 957l-73 -71h-57v59l71 69h59v-57z" />
    <glyph glyph-name="Ograve" unicode="&#xd2;" 
d="M514 455l-43 -39l-39 38v242l39 37l43 -40v-238zM455 754l-39 -40h-275l-38 39l40 43h273zM514 102l-43 -39l-39 37v240l39 38l43 -40v-236zM131 455l-43 -39l-39 38v242l39 37l43 -40v-238zM455 42l-39 -42h-273l-40 42l38 40h275zM131 102l-43 -39l-39 37v240l39 38
l43 -40v-236zM403 902l-52 -15l-169 98l-15 54l56 17l168 -97z" />
    <glyph glyph-name="Uacute" unicode="&#xda;" 
d="M514 455l-43 -39l-39 38v304l39 37l43 -40v-300zM131 455l-43 -39l-39 38v304l39 37l43 -40v-300zM514 102l-43 -39l-39 37v240l39 38l43 -40v-236zM455 42l-39 -42h-273l-40 42l38 40h275zM131 102l-43 -39l-39 37v240l39 38l43 -40v-236zM396 1039l-14 -54l-170 -98
l-52 15l13 57l168 97z" />
    <glyph glyph-name="Ucircumflex" unicode="&#xdb;" 
d="M514 455l-43 -39l-39 38v304l39 37l43 -40v-300zM131 455l-43 -39l-39 38v304l39 37l43 -40v-300zM514 102l-43 -39l-39 37v240l39 38l43 -40v-236zM455 42l-39 -42h-273l-40 42l38 40h275zM131 102l-43 -39l-39 37v240l39 38l43 -40v-236zM429 886h-57l-73 71v57h59
l71 -69v-59zM274 957l-73 -71h-57v59l71 69h59v-57z" />
    <glyph glyph-name="Ugrave" unicode="&#xd9;" 
d="M514 455l-43 -39l-39 38v304l39 37l43 -40v-300zM131 455l-43 -39l-39 38v304l39 37l43 -40v-300zM514 102l-43 -39l-39 37v240l39 38l43 -40v-236zM455 42l-39 -42h-273l-40 42l38 40h275zM131 102l-43 -39l-39 37v240l39 38l43 -40v-236zM409 902l-52 -15l-169 98
l-15 54l56 17l168 -97z" />
    </font>
</defs>
</svg>
